PathFileType	4	(X/Y/Z)	/Users/niels/Desktop/University/Third Semester/Perception and Action/Exam/Gymnastics Motion Tracking/Code for Gym Tracking/Analyzed Data/Start Salto/stsalto_bad_id7_1_Sports2D/stsalto_bad_id7_1_Sports2D_px_person00.trc
DataRate	CameraRate	NumFrames	NumMarkers	Units	OrigDataRate	OrigDataStartFrame	OrigNumFrames
29.88505747126437	29.88505747126437	11	22	m	29.88505747126437	97	261
Frame#	Time	Hip			RHip			RKnee			RAnkle			RBigToe			RSmallToe			RHeel			LHip			LKnee			LAnkle			LBigToe			LSmallToe			LHeel			Neck			Head			Nose			RShoulder			RElbow			RWrist			LShoulder			LElbow			LWrist		
		X1	Y1	Z1	X2	Y2	Z2	X3	Y3	Z3	X4	Y4	Z4	X5	Y5	Z5	X6	Y6	Z6	X7	Y7	Z7	X8	Y8	Z8	X9	Y9	Z9	X10	Y10	Z10	X11	Y11	Z11	X12	Y12	Z12	X13	Y13	Z13	X14	Y14	Z14	X15	Y15	Z15	X16	Y16	Z16	X17	Y17	Z17	X18	Y18	Z18	X19	Y19	Z19	X20	Y20	Z20	X21	Y21	Z21	X22	Y22	Z22
97	3.2457692307692305	0.4835079007555416	-0.5792510694553197	0.0	0.47155148727727764	-0.5770207759829074	0.0	0.543486668951746	-0.6973826518100742	0.0	0.5257317445924458	-0.8276360048748741	0.0	0.562820837167273	-0.84768470411288	0.0	0.5473458886165595	-0.8473855918846488	0.0	0.5148063456400483	-0.8444394754776822	0.0	0.4975803722856942	-0.5785787470962839	0.0	0.5484519806219715	-0.6975800732034856	0.0	0.5280626237403481	-0.8273589643597935	0.0	0.5675966076217345	-0.8474356648559214	0.0	0.5644388335436307	-0.842930215708231	0.0	0.5120680572133428	-0.8417408192907049	0.0	0.548255698928681	-0.4235851616576246	0.0	0.6016520863777639	-0.35034777709650716	0.0	0.5987779860048457	-0.40084350665844243	0.0	0.5269033950659054	-0.424899897020788	0.0	0.6158495687845341	-0.44450510502491175	0.0	0.6907087206568803	-0.40058652605903267	0.0	0.5559687454483071	-0.4354686948945254	0.0	0.6344048259486289	-0.45259541803714015	0.0	0.6999231287380463	-0.41079674127439486	0.0
98	3.279230769230769	0.4921721857282354	-0.5772403484502835	0.0	0.48179837603934544	-0.5761306298201244	0.0	0.5495505055695777	-0.6974975388267179	0.0	0.5267366772609763	-0.826520667396355	0.0	0.5601465541377659	-0.8468376937325581	0.0	0.5445736496148674	-0.8470231128567159	0.0	0.5147614488438647	-0.8430015040733859	0.0	0.5044344481014432	-0.5774814615147268	0.0	0.553461378056148	-0.6975146246132369	0.0	0.5292226477740066	-0.8263783381974148	0.0	0.566449817085477	-0.8472639541461562	0.0	0.5627210250483758	-0.842707968591074	0.0	0.5115646304477927	-0.8405881813896733	0.0	0.5601415098186926	-0.42384018480692687	0.0	0.6186143892479188	-0.35555568259278597	0.0	0.6120435413577396	-0.4035665365364326	0.0	0.5402241666914928	-0.4250043629590136	0.0	0.6301169758056044	-0.4445331425637407	0.0	0.7042891961914349	-0.4011940151714671	0.0	0.564647265128424	-0.434273704210046	0.0	0.6433371422895808	-0.4498644895278295	0.0	0.7088533202618542	-0.40871055947302853	0.0
99	3.3126923076923074	0.5001672984609989	-0.57402535155099	0.0	0.4914289779410449	-0.5741427483742046	0.0	0.5546302450914554	-0.6963591613555726	0.0	0.527717542371547	-0.8243611300227118	0.0	0.5573851409489508	-0.8452989374573477	0.0	0.5426585979609143	-0.8461702598653417	0.0	0.5146337687061237	-0.8409264594526848	0.0	0.5105855437831519	-0.5751764818485319	0.0	0.5575799433643014	-0.6961831808186315	0.0	0.5303158323055827	-0.8241838213767843	0.0	0.5652989920480197	-0.8462602199042758	0.0	0.5607146859067699	-0.8417362482349611	0.0	0.5110506891854072	-0.8387070001281428	0.0	0.5719148702532839	-0.422705855084808	0.0	0.6350818424026282	-0.3598102177298817	0.0	0.6252407941219961	-0.40534425490347253	0.0	0.5531724064052975	-0.42441087955329576	0.0	0.6435820684535146	-0.44487371595831054	0.0	0.7177538443234941	-0.4031788194209636	0.0	0.5729956654334161	-0.4316176480139409	0.0	0.652289154673342	-0.4473096240718464	0.0	0.7181857560544583	-0.40798539048792404	0.0
100	3.346153846153846	0.5076189399780873	-0.5700813905312809	0.0	0.5004229224499787	-0.5712707550799211	0.0	0.558595496870977	-0.6940975998949621	0.0	0.5286507511643115	-0.8213933835296747	0.0	0.5550131746276351	-0.8433132583558702	0.0	0.5418536099333275	-0.8449045139662168	0.0	0.5145258330391518	-0.8383677829778594	0.0	0.5163227852417681	-0.5718451846534693	0.0	0.5607682344481058	-0.6938101609304115	0.0	0.5312249830205625	-0.8210406851980887	0.0	0.5642562024366192	-0.8444582824167298	0.0	0.5587252920684432	-0.8400532107239551	0.0	0.510640217330961	-0.8361452435738822	0.0	0.5834323849149851	-0.42043479976979203	0.0	0.6507183312210092	-0.36290168321259125	0.0	0.6381712992130345	-0.40643934221713185	0.0	0.5656901081275562	-0.4230806489106835	0.0	0.6560620798280097	-0.4454505857489513	0.0	0.7309463395806799	-0.40625844771412284	0.0	0.5810613906926578	-0.4278058434863757	0.0	0.6610404138664532	-0.44526132829067677	0.0	0.7278897192014618	-0.40871455630034365	0.0
101	3.3796153846153842	0.5146939674163685	-0.565727139449995	0.0	0.5088661113845147	-0.5675730691074112	0.0	0.5614753371320351	-0.690930065479117	0.0	0.5294898202985852	-0.8177679939769916	0.0	0.5537563847332828	-0.8410616037236148	0.0	0.542381752609442	-0.8432014468581879	0.0	0.5145150403866764	-0.8353048027903611	0.0	0.5219189458343019	-0.5675578609588124	0.0	0.5630270898104255	-0.6906517153452163	0.0	0.5318664462725371	-0.8171527299305305	0.0	0.5635509388619407	-0.8418677050363613	0.0	0.5571941726915056	-0.8376776790514882	0.0	0.5104127171284211	-0.8328601314060807	0.0	0.5947485679818056	-0.4173958656578003	0.0	0.665570222775243	-0.3649926860285789	0.0	0.6508699144077237	-0.40727205415545886	0.0	0.5778670882431349	-0.4209049167590429	0.0	0.6674288521382055	-0.4462083246428095	0.0	0.7437580992715479	-0.41024853521519167	0.0	0.5893013576275549	-0.42325962905968306	0.0	0.669492270653737	-0.44406105877857727	0.0	0.7380222108960076	-0.41094339463826685	0.0
102	3.4130769230769227	0.521542800082852	-0.560980258577247	0.0	0.5169226097172906	-0.5629312754059992	0.0	0.5634467533399091	-0.6870828108890498	0.0	0.5301998446132317	-0.8135763900473448	0.0	0.5541822578112862	-0.8386621704612833	0.0	0.5443057666160309	-0.8410240356415812	0.0	0.5146973850201276	-0.8316273536879802	0.0	0.5275776136829754	-0.5622949372286917	0.0	0.5644398827369456	-0.6868942406976324	0.0	0.5322390456314909	-0.8126557136618545	0.0	0.5634614950109391	-0.8386155814706483	0.0	0.5564936456448129	-0.8347311826861827	0.0	0.5104584360019997	-0.8287978705897052	0.0	0.6061451723638379	-0.4138426767318512	0.0	0.680081394200859	-0.366528659327545	0.0	0.6635184991881686	-0.4080914370999891	0.0	0.5899351756332097	-0.4178149831835526	0.0	0.6777568472924134	-0.4471698116158404	0.0	0.7561808714774277	-0.4150855192544476	0.0	0.5983014323223348	-0.4182903903967159	0.0	0.6777672731551179	-0.44387754687944003	0.0	0.7486899621565783	-0.41458026217865	0.0
103	3.446538461538461	0.5282336032878003	-0.5556672452840439	0.0	0.5247713261528665	-0.5572508683491939	0.0	0.56475574981041	-0.6827026597549626	0.0	0.530840498952235	-0.8089326755575992	0.0	0.5563469492822177	-0.8361422322069306	0.0	0.5474774303321562	-0.8383877374091554	0.0	0.5151818904354658	-0.8272668341996439	0.0	0.5333606088127653	-0.5560669351802238	0.0	0.5651751220576441	-0.6826074403974386	0.0	0.5324427059755552	-0.8076827387695052	0.0	0.5642276568620469	-0.8349575120489021	0.0	0.5568591157773827	-0.8314075926762178	0.0	0.5109085088752383	-0.8239791128703601	0.0	0.6179153595117594	-0.40988720034852527	0.0	0.6948031618637858	-0.3681089157073658	0.0	0.6761204099092104	-0.4088953589856937	0.0	0.6021017772791062	-0.41390288435994804	0.0	0.6872770906480051	-0.44834263430367044	0.0	0.768177824210357	-0.42071893312538183	0.0	0.6083393447709309	-0.41300930606872915	0.0	0.6860385157234121	-0.4445399680570394	0.0	0.7597998659765313	-0.4193339726174244	0.0
104	3.4799999999999995	0.5347735003311272	-0.5495514186999432	0.0	0.5326069290311061	-0.5505622632763618	0.0	0.5656851148702216	-0.6777896658738861	0.0	0.5315728861399391	-0.8039249467157842	0.0	0.559868329106806	-0.8334455487683162	0.0	0.5515947613099216	-0.835346293869568	0.0	0.5159934695906674	-0.8222200927916705	0.0	0.5391741880814922	-0.5489214523567804	0.0	0.565480596991594	-0.6777273802732449	0.0	0.5326597314527054	-0.8023308928848363	0.0	0.566012258204788	-0.8311437170088707	0.0	0.5583926291792052	-0.8278163993320342	0.0	0.5118677653072993	-0.8184700532806323	0.0	0.6301788490105102	-0.4056050988328594	0.0	0.7100610657117221	-0.3703263359310286	0.0	0.6884360468233597	-0.4095774463657765	0.0	0.6145147708252016	-0.4094608476270565	0.0	0.6962777690811426	-0.4496368410770798	0.0	0.77967481375248	-0.42707784090377376	0.0	0.6192668695082787	-0.407423295308876	0.0	0.6944462409017165	-0.4456795396245541	0.0	0.7710443012095448	-0.424916668491872	0.0
105	3.5134615384615384	0.5412181161963872	-0.5424157497396405	0.0	0.5406239631010122	-0.5429492218879943	0.0	0.5665514638701268	-0.6721980539440687	0.0	0.5325821786630157	-0.7984888034624239	0.0	0.5641881300884959	-0.8304772592620238	0.0	0.5562383292465426	-0.8319417984018511	0.0	0.5170763899856425	-0.8164385625174098	0.0	0.544942019682441	-0.5408932721951776	0.0	0.5656665538407061	-0.67206641804542	0.0	0.5331074976823368	-0.7965403073502849	0.0	0.5687949952666076	-0.827278025387812	0.0	0.5609838420546509	-0.8238868235210292	0.0	0.5133408868583745	-0.8122639691548589	0.0	0.6429536029830896	-0.4011198212270711	0.0	0.7259400875543478	-0.3734961192236352	0.0	0.7003590775246633	-0.41007376592262684	0.0	0.6274122791628292	-0.4048727393514737	0.0	0.7051139479552909	-0.4509405924928174	0.0	0.7907345091766788	-0.4341636785672411	0.0	0.6308338013706358	-0.40157363857017314	0.0	0.7032094277497521	-0.4470323589987288	0.0	0.7821883688413391	-0.43128296506163666	0.0
106	3.546923076923077	0.5476407168780026	-0.5342705495399306	0.0	0.5488008879771412	-0.5345986537343009	0.0	0.5676410315386163	-0.665780838779701	0.0	0.5340236843452832	-0.7924743795688733	0.0	0.5686547259707868	-0.8271666204893547	0.0	0.5608455774397204	-0.8282102389978392	0.0	0.5184490554521642	-0.8098332723553404	0.0	0.5507047203842899	-0.5321655014974366	0.0	0.5660558782537531	-0.6654557061231602	0.0	0.5339911295073937	-0.7901723414586814	0.0	0.5721868136735231	-0.8233262372298806	0.0	0.5642170071788002	-0.8194846791764677	0.0	0.5152849125901579	-0.8052920942554358	0.0	0.656146461369416	-0.39668506646251955	0.0	0.7422345684838815	-0.3774001269003635	0.0	0.712047383974994	-0.4104041832086118	0.0	0.6409716436324143	-0.40049254081770724	0.0	0.7140594978432766	-0.45222385658566067	0.0	0.8014083170417206	-0.4420104877264311	0.0	0.6429190337758323	-0.39569117585051594	0.0	0.7125257623379458	-0.4485664126400782	0.0	0.7930755617786508	-0.4385330997865056	0.0
107	3.5803846153846153	0.5540280027641442	-0.5254481911463219	0.0	0.5567876007261078	-0.525883344465155	0.0	0.5691207171645976	-0.6585532319521965	0.0	0.5359917260924549	-0.7858119710833144	0.0	0.5725655466345304	-0.8235503859112174	0.0	0.5647632737249618	-0.8242349617832024	0.0	0.5202616978348483	-0.8023984940799286	0.0	0.5565149016841897	-0.5231986122950464	0.0	0.5669217364637021	-0.6579227570283819	0.0	0.5354531569258273	-0.7832067799496341	0.0	0.5754381205633102	-0.8192396765636722	0.0	0.5674321103419373	-0.8146086077744514	0.0	0.5176742366311726	-0.7975282940077484	0.0	0.6694733477085998	-0.39267545315796865	0.0	0.7583693937163137	-0.3814023766183046	0.0	0.7236721675935522	-0.4106774488250758	0.0	0.6550093801023872	-0.39660475133610823	0.0	0.7231153883167585	-0.4535477044389914	0.0	0.8114554767060308	-0.45052456905813	0.0	0.6554583576750275	-0.3902563060404989	0.0	0.7223661094049979	-0.4503504947906326	0.0	0.803457891076001	-0.4466220046130673	0.0
